
<svg width="22" height="22" xmlns="http://www.w3.org/2000/svg"><g fill="none" fill-rule="evenodd"><rect fill="#CEDDEC" x="10" y="1" width="2" height="4" rx="1"></rect><rect fill="#CEDDEC" x="10" y="17" width="2" height="4" rx="1"></rect><rect fill="#CEDDEC" transform="rotate(90 19 11)" x="18" y="9" width="2" height="4" rx="1"></rect><rect fill="#CEDDEC" transform="rotate(90 3 11)" x="2" y="9" width="2" height="4" rx="1"></rect><rect fill="#CEDDEC" transform="rotate(45 16.657 5.343)" x="15.657" y="3.343" width="2" height="4" rx="1"></rect><rect fill="#CEDDEC" transform="rotate(45 5.343 16.657)" x="4.343" y="14.657" width="2" height="4" rx="1"></rect><rect fill="#CEDDEC" transform="rotate(135 16.657 16.657)" x="15.657" y="14.657" width="2" height="4" rx="1"></rect><rect fill="#CEDDEC" transform="rotate(135 5.343 5.343)" x="4.343" y="3.343" width="2" height="4" rx="1"></rect><circle fill="#CEDDEC" cx="11" cy="11" r="5"></circle><path fill="none" d="M0 0h22v22H0z"></path></g></svg>